<svg xmlns="http://www.w3.org/2000/svg" viewBox="0 0 240 240" role="img" aria-label="あかり・光の象徴">
  <defs>
    <linearGradient id="aeGold" x1="0" y1="0" x2="0.5" y2="1">
      <stop offset="0" stop-color="#e8cd82"/><stop offset="1" stop-color="#b8923f"/>
    </linearGradient>
    <path id="rayL" d="M120 78 L120 22"/>
    <path id="rayS" d="M120 78 L120 50"/>
  </defs>
  <g stroke="url(#aeGold)" stroke-linecap="round" fill="none">
    <g stroke-width="3.4">
      <use href="#rayL" transform="rotate(0 120 120)"/>
      <use href="#rayL" transform="rotate(30 120 120)"/>
      <use href="#rayL" transform="rotate(60 120 120)"/>
      <use href="#rayL" transform="rotate(90 120 120)"/>
      <use href="#rayL" transform="rotate(120 120 120)"/>
      <use href="#rayL" transform="rotate(150 120 120)"/>
      <use href="#rayL" transform="rotate(180 120 120)"/>
      <use href="#rayL" transform="rotate(210 120 120)"/>
      <use href="#rayL" transform="rotate(240 120 120)"/>
      <use href="#rayL" transform="rotate(270 120 120)"/>
      <use href="#rayL" transform="rotate(300 120 120)"/>
      <use href="#rayL" transform="rotate(330 120 120)"/>
    </g>
    <g stroke-width="2.4" opacity=".8">
      <use href="#rayS" transform="rotate(15 120 120)"/>
      <use href="#rayS" transform="rotate(45 120 120)"/>
      <use href="#rayS" transform="rotate(75 120 120)"/>
      <use href="#rayS" transform="rotate(105 120 120)"/>
      <use href="#rayS" transform="rotate(135 120 120)"/>
      <use href="#rayS" transform="rotate(165 120 120)"/>
      <use href="#rayS" transform="rotate(195 120 120)"/>
      <use href="#rayS" transform="rotate(225 120 120)"/>
      <use href="#rayS" transform="rotate(255 120 120)"/>
      <use href="#rayS" transform="rotate(285 120 120)"/>
      <use href="#rayS" transform="rotate(315 120 120)"/>
      <use href="#rayS" transform="rotate(345 120 120)"/>
    </g>
  </g>
  <circle cx="120" cy="120" r="31" fill="none" stroke="url(#aeGold)" stroke-width="2" opacity=".45"/>
  <circle cx="120" cy="120" r="13" fill="url(#aeGold)"/>
  <circle cx="120" cy="120" r="5.2" fill="#01091e"/>
</svg>
