<?xml version="1.0" encoding="utf-8"?>
<!-- Generator: Adobe Illustrator 24.0.2, SVG Export Plug-In . SVG Version: 6.00 Build 0)  -->
<svg version="1.1" id="Layer_1" xmlns="http://www.w3.org/2000/svg" xmlns:xlink="http://www.w3.org/1999/xlink" x="0px" y="0px"
	 viewBox="0 0 529.5 551" style="enable-background:new 0 0 529.5 551;" xml:space="preserve">
<style type="text/css">
	.st0{fill:#DF0023;}
</style>
<g>
	<path d="M67.9,215.2c1.4,0.2,3.3,0.4,4.4,0.4c0.4,2.2,0.4,7.1,0.1,9.6c-0.3,2.4-1,6.7-2.9,9.6c-2.9,4.4-7.4,6.6-12,6.1
		c-5.2-0.6-8.7-3.6-10.5-7.2c-1.9-3.6-2.2-7.5-1.7-11.2c0.4-3.2,1.3-7,1.9-8.2c-0.6-0.2-2.6-0.9-3.4-1.1l-0.1-0.9
		c1.4,0.4,7.9,1.6,11.4,1.8l-0.5,0.8c-1.3-0.1-2.6,0-3.5,0c-1.3,0.8-4,3.2-4.7,9.2c-0.7,6.4,3.5,11.3,9.5,12s14.4-3.5,15.3-11.5
		c0.1-1,0.2-3.2-0.4-4.8c-0.5-0.1-1.8-0.3-3.7-0.5l-2-0.2c-1.1-0.1-2.3-0.2-3-0.2c-0.2,0.7-0.6,3-0.8,3.7l-0.8,0.1
		c0.3-1.9,0.7-4.8,0.8-6.1c0.2-1.8,0.6-5.4,0.6-5.8l0.8,0.3c0,0.3-0.1,2.4,0,3.3c0.6,0.2,3.1,0.5,4.1,0.6L67.9,215.2z"/>
	<path d="M60.2,203.4c-2-0.6-7.5-2.1-8.7-2.3c-0.4,0.7-1.2,2.8-1.6,3.7l-0.8-0.1c0.3-0.9,1.3-3.9,1.9-6.1c0.7-2.4,1.6-5.8,1.7-6.6
		l0.7,0.4c-0.2,0.9-0.4,2.9-0.7,4.3c1.1,0.5,6.2,1.9,9,2.7l1.3,0.4c4.7,1.3,11.5,3.2,12.3,3.3c1.2-4.2,1.1-7.4,0.6-9
		c-1.1-0.9-2.8-1.9-3.7-2.4l0.1-0.9c3,1.6,6.5,3.3,11.2,5.2l-0.4,0.8c-0.5-0.1-3.1-1.1-4.1-1.3c-0.3,0.8-2.6,8.4-3.1,10.3
		c-0.5,1.8-1.3,5.1-1.6,6.1l-0.7-0.4c0.1-0.5,0.6-3.1,0.6-3.9c-1.5-0.6-8.4-2.5-11.9-3.5L60.2,203.4z"/>
	<path d="M78,187.8c-3.7,1.4-6.5,1.2-9.8-0.2c-6.9-2.9-10.7-11.1-6.8-20.7c1.5-3.7,3.3-6.3,6.8-8.4c3.2-1.9,7.1-2,10.3-0.6
		c8.5,3.5,11.3,12.3,7.7,20.8C84.9,182.3,82.7,186,78,187.8z M79.4,163.3c-7.3-3.1-14.7-0.2-17.1,5.6c-2,4.7-1,11.3,6.2,14.3
		c6.2,2.6,14.4,0.1,17.2-6.6C87.7,171.5,85,165.6,79.4,163.3z"/>
	<path d="M82.8,152c-2.2-1.5-7.2-4.6-8.5-5.3c-0.9,0.9-1.8,2.1-2.4,3l-0.8-0.3c0.6-1,4.4-7.1,5.6-9.1c4-6.1,7.2-5.3,8.7-4.3
		c0.9,0.6,1.7,1.1,2.4,2.7c1,2.3,0.8,4.8,0.6,6.2l0.1,0.1c2.5-2.8,6.9-4.6,10.2-2.4c3.6,2.4,4.1,6.9,1.2,11.2
		c-0.3,0.4-1,1.5-1.8,2.5s-1.6,2.2-2,2.8c-0.5,0.7-2.5,3.9-3,4.8l-0.6-0.6c0.4-0.8,1.5-2.8,1.7-3.5c-2-1.6-6.6-4.7-9.4-6.5L82.8,152
		z M85.8,149.1c0.6-1,1.5-2.7,1.4-4.4s-1.1-3.3-2.7-4.4c-2.7-1.8-5.6-1.3-7.3,1.2c-0.3,0.5-0.6,1-0.6,1.4c0.3,0.3,4.7,3.2,7.5,5.1
		L85.8,149.1z M88.4,150.8c2.7,1.8,7.5,4.6,8,4.7c1-0.4,1.9-1.4,2.3-2.1c2-3,1.1-5.3-1-6.7c-2-1.3-5.2-1.6-7.8-0.2
		c-1.5,0.8-2.8,2.4-3.2,3.2L88.4,150.8z"/>
	<path d="M114.8,133c0.8-1.1,1.5-2.2,2.1-3.2c-1.9-0.8-9.8-4-11-4.3c-0.9,1-4.6,5.7-5.3,6.9c0.3,0.5,4.3,6.7,6.3,8.9
		c0.8-0.5,1.8-1.4,2.5-2.1l0.7,0.4c-0.8,0.8-3.1,3.4-3.9,4.2c-0.6,0.7-2.2,2.7-2.8,3.4l-0.5-0.6c0.6-0.9,1.2-1.9,1.7-2.8
		c-0.9-2.6-11.4-21.6-12.1-22.9c-0.7,0.5-1.6,1.3-2.3,1.9l-0.6-0.5c0.8-0.8,2.9-3.1,3.3-3.6c1-1.2,3.5-4.1,4.1-5l0.5,0.6
		c-0.6,0.8-1.1,1.7-1.5,2.5c1.6,0.7,7.4,3.1,11.4,4.6c2.9,1.1,9.2,3.5,12.9,4.4c0.9-0.7,1.7-1.4,2.6-2.2l0.7,0.4
		c-0.4,0.3-2.9,3.1-4.2,4.7c-0.7,0.8-3.5,4.1-4.1,4.9L114.8,133z M93.8,120.4L93.8,120.4c1.7,3.1,5.1,9.3,5.8,10.4l5.3-5.9
		C102.4,123.9,95.8,121.3,93.8,120.4z"/>
	<path d="M114.1,110.9c-1.5-1.6-5.4-5.8-6.3-6.5c-0.7,0.5-2.5,1.7-3.3,2.3l-0.6-0.5c0.7-0.6,3.2-2.7,4.8-4.3
		c1.8-1.7,4.4-4.2,4.9-4.8l0.4,0.7c-0.6,0.7-1.9,2.3-2.9,3.4c0.7,1,4.3,4.9,6.4,7.1l0.9,1c3.3,3.6,8.2,8.8,8.9,9.3
		c3.2-3,4.8-5.8,5.2-7.5c-0.5-1.3-1.4-3.1-1.9-4l0.6-0.7c1.7,2.9,3.9,6.3,6.9,10.3l-0.8,0.4c-0.4-0.4-2.2-2.6-2.8-3.3
		c-0.7,0.5-6.6,5.9-8.1,7.3c-1.4,1.3-3.8,3.7-4.5,4.4l-0.4-0.7c0.4-0.4,2.1-2.4,2.5-3.1c-1-1.3-5.9-6.6-8.4-9.3L114.1,110.9z"/>
	<path d="M152.5,77.8c-0.4-0.6-1.5-2-1.9-2.4c-1.5-1-5.9-1.2-9.9,1.5c-5.6,3.8-6.4,10.3-3.1,15.1c4.1,6,12.6,7.7,19.1,3.2
		c2.3-1.6,4.9-3.9,6.2-6.7l0.5,1.6c-0.3,1.1-2.6,4.5-7.4,7.8c-1.1,0.8-4.6,3-7.9,3.4c-5.4,0.8-10.1-1.1-12.8-5.1
		c-2.9-4.3-2.9-8.9-1.4-12.5c1.7-4.4,4.3-6.7,7.4-8.8c2.7-1.9,6-3.3,7-3.6c-0.1-0.5-1.1-2.8-1.2-3.2l0.6-0.6c1.9,3.7,3.9,7,5.8,10
		L152.5,77.8z"/>
	<path d="M165.5,86.5c-3.7-1.4-5.7-3.5-7.2-6.7c-3.2-6.8-0.5-15.5,8.9-20c3.6-1.7,6.8-2.5,10.8-1.7c3.6,0.7,6.6,3.3,8.1,6.5
		c4,8.4,0.2,16.8-8.2,20.7C174.4,87,170.2,88.2,165.5,86.5z M183.1,69c-3.4-7.2-10.9-10.1-16.6-7.4c-4.7,2.2-8.3,7.8-5,14.8
		c2.9,6.1,10.7,9.8,17.3,6.6C183.8,80.8,185.7,74.5,183.1,69z"/>
	<path d="M216.7,68.4c0.5-0.2,3.1-1.3,3.8-1.6c-0.5-1.3-8.5-16.3-9.8-18.8h-0.1c-0.3,2.5-2,21.7-2.4,24
		c-1.7-1.9-13.8-17.6-14.7-18.8h-0.1c0.8,5.7,1.7,16.3,3.3,20.8c0.7-0.1,2.8-0.4,3.3-0.5l0.4,0.7c-0.5,0.1-4.7,1.3-5.3,1.5
		c-1,0.3-2.8,0.9-3.9,1.4v-0.8c0.6-0.3,1.7-0.8,2.4-1.2c0.1-2.5-1.5-21.2-1.8-24.3c-1,0.2-3.3,0.5-3.7,0.6l-0.4-0.7
		c0.5-0.1,3.3-0.9,5.2-1.4c1.5-0.5,4.3-1.4,5.3-1.8l0.1,0.8c-1,0.4-1.9,1-2.5,1.3c2,2.9,10,13.2,11.9,15.6c0.4-2.3,2-19,1.8-19.8
		c-0.8,0-1.9,0.2-2.6,0.3l-0.4-0.7c1.2-0.3,3.6-1,4.8-1.3c1.1-0.4,4.1-1.3,4.9-1.7l0.1,0.8c-0.5,0.2-2.1,1-2.8,1.4
		c1.9,3.8,10.4,19.2,11.7,21.2c1-0.1,2.4-0.3,3.1-0.4l0.4,0.7c-1.2,0.3-3.4,0.9-5.1,1.4c-1.6,0.5-5.5,1.8-6.5,2.2L216.7,68.4z"/>
	<path d="M234.9,50.5c0.4,3.1,1.4,11.6,1.7,12.7c0.9,0,3.6,0,4.7-0.1l0.3,0.7c-1.2,0.1-5.3,0.5-7,0.7c-1.8,0.2-5.3,0.7-6.3,0.9
		l0.1-0.8c0.5-0.1,2.9-0.7,3.8-1c-0.1-1.6-1-9.5-1.4-12.9l-0.2-1.5c-0.1-1.2-1-7.9-1.3-9.1c-0.7-0.2-3.1-0.1-4,0l-0.2-0.8
		c1.1-0.1,6.5-0.8,8.2-1c4-0.5,7.1-0.5,9,0c3.4,1,4,3.2,4.2,4.1c0.3,2.5-0.5,4.5-1.8,6.2c-2.1,2.7-6,4.2-7.3,4.5v-0.9
		c1.3-0.5,5.6-2.4,4.9-7.9c-0.3-2.2-1.6-3.9-3.6-4.6c-1.3-0.4-3.2-0.4-4.8-0.2c0,1.1,0.6,6.3,1,9.5L234.9,50.5z"/>
	<path d="M253.2,46.7c-0.1-2.1-0.4-7.9-0.6-9c-0.8-0.1-3-0.3-4-0.3l-0.1-0.8c0.9,0,4.2-0.1,6.4-0.2c2.5-0.1,6.1-0.4,6.8-0.5
		l-0.1,0.8c-0.9,0.1-2.9,0.5-4.3,0.7c-0.1,1.2,0.1,6.5,0.3,9.5l0.1,1.3c0.2,4.9,0.6,12,0.8,12.8c4.4-0.2,7.4-1.3,8.8-2.3
		c0.5-1.3,0.9-3.2,1.1-4.3l0.9-0.2c-0.6,3.3-1.1,7.3-1.4,12.3l-0.9-0.1c0-0.5,0-3.3,0-4.3c-0.8,0-8.8,0.2-10.8,0.3
		c-1.9,0.1-5.3,0.3-6.3,0.5l0.1-0.8c0.6-0.1,3.1-0.4,3.9-0.7c0.1-1.6-0.3-8.8-0.4-12.5L253.2,46.7z"/>
	<path d="M278.8,49.4c-0.2,4.8-0.4,11-0.3,11.8c0.9,0.3,3.1,0.6,3.9,0.7l0.2,0.8c-0.8-0.1-4.7-0.3-7-0.4c-1.3-0.1-4.7-0.1-5.8-0.1
		l0.2-0.8c0.6,0,3.2-0.2,4-0.4c0.2-1.6,0.5-8.4,0.7-12.1l0.1-2.2c0.1-1.2,0.3-8.2,0.2-9.5c-0.7-0.2-3.2-0.6-3.9-0.7l-0.2-0.8
		c0.7,0.1,4.1,0.3,7.1,0.4c1.9,0.1,5.1,0.1,5.7,0.1l-0.2,0.8c-0.7,0-2.6,0.3-3.9,0.4c-0.2,0.7-0.4,5-0.6,9.6L278.8,49.4z"/>
	<path d="M298.6,63.7c1.3,0.1,2.6,0.1,3.8,0.1c-0.4-2-1.8-10.3-2.2-11.4c-1.3-0.2-7.2-0.8-8.6-0.8c-0.3,0.5-3.4,7.2-4.2,9.9
		c0.9,0.4,2.1,0.7,3.1,1v0.8c-1.1-0.2-4.5-0.8-5.6-1c-1-0.1-3.4-0.5-4.3-0.5l0.2-0.8c1.1,0.1,2.2,0,3.3,0
		c1.7-2.1,12.1-20.9,12.8-22.2c-0.8-0.3-2-0.7-2.8-0.9l0.1-0.8c1.1,0.2,4.2,0.8,4.8,0.9c1.6,0.2,5.3,0.7,6.3,0.8l-0.2,0.8
		c-1,0-2,0-2.9,0c0.2,1.7,1.3,7.8,2.1,11.9c0.6,3,1.9,9.6,3.1,13.1c1,0.4,2.1,0.7,3.2,1v0.8c-0.4-0.1-4.2-0.8-6.1-1.1
		c-1.1-0.2-5.3-0.7-6.3-0.8L298.6,63.7z M298.1,39.6L298.1,39.6c-1.7,3.1-5.1,9.1-5.7,10.3l7.7,1.3
		C299.7,48.7,298.4,41.7,298.1,39.6z"/>
	<path d="M315.6,40.5c2,0.5,5.4,1.6,8.2,2.3c0.4,1.5,4.8,12.6,5.2,13.5c0.6,1.3,4.1,9.9,5,11.2c1.2-3.9,5.1-16.4,4.9-18.5
		c-0.7-0.4-2.5-1.2-3.4-1.6l0.1-0.8c0.7,0.3,4.5,1.5,5.3,1.8c0.8,0.2,3.8,1.1,4.5,1.2l-0.4,0.7c-0.5-0.1-1.9-0.2-2.9-0.3
		c-0.9,1.3-2.6,6.2-3,7.3c-0.6,1.6-5.6,16.5-6.2,17.8c-0.8-1.3-7-15.9-7.6-17c-0.3-0.7-4.5-11-5.3-12.7c-0.3,0.7-5.7,19.5-5.6,20.9
		c0.5,0.3,3.1,1.4,3.7,1.7l-0.1,0.8c-0.6-0.3-4.3-1.5-5.2-1.8c-1-0.3-3.8-1.1-4.9-1.4l0.3-0.7c1,0.2,2.2,0.4,3.1,0.4
		c1.1-1.3,7.7-21.1,8-22.3c-0.8-0.4-2.4-1.2-3.8-1.6L315.6,40.5z"/>
	<path d="M369,69.9c0.3-0.6,1-2.3,1.1-2.9c0.1-1.8-1.9-5.7-6.3-7.8c-6.2-2.9-12.2-0.3-14.6,5c-3.1,6.6-0.3,14.7,6.8,18.1
		c2.6,1.2,5.8,2.2,8.9,2l-1.2,1.2c-1.1,0.3-5.2,0-10.5-2.5c-1.3-0.6-4.9-2.5-7-5.1c-3.4-4.2-4.2-9.3-2.1-13.7
		c2.2-4.7,6.2-7,10.1-7.6c4.6-0.7,8,0.3,11.4,2c3,1.4,5.8,3.5,6.7,4.2c0.4-0.3,1.8-2.3,2.1-2.7l0.9,0.2c-2.3,3.5-4.1,6.9-5.7,10.1
		L369,69.9z"/>
	<path d="M374.8,77.9c1.9-2.8,5.2-7.9,5.7-8.9c-0.5-0.5-2.3-2-3-2.6l0.3-0.7c0.7,0.5,1.7,1.3,2.8,2c1,0.7,2.1,1.4,2.7,1.9
		c1,0.7,8.4,5.6,9.4,6c0.3-0.3,0.8-0.8,1.2-1.3l0.8,0.4c-0.6,0.6-4.3,5.1-5,6.1l-0.5-0.7c0.1-0.2,1.1-1.6,1.5-2.3
		c0-1.3-4.5-5-6.2-6.1c-0.4,0.4-4.6,6.3-5.8,8.2l-0.4,0.6c2.7,1.8,5.9,3.7,6.8,3.9c0.5-0.4,0.9-0.7,1.2-1.1l0.7,0.4
		c-0.5,0.5-3.9,4.4-4.8,5.3l-0.4-0.7c0.5-0.6,1.1-1.4,1.5-2.1c-0.6-1.2-3-3-5.7-4.8l-0.4,0.6c-1.3,1.9-5.8,8.8-6.3,9.8
		c3.1,2.1,6.3,3.9,8.3,4c1.1-0.9,1.9-1.7,2.6-2.3l0.8,0.3c-0.8,0.8-4.7,5.1-5.9,6.6l-0.6-0.6c0.6-0.8,1-1.4,1.3-1.9
		c-0.8-0.8-7.7-5.6-9.7-6.9c-1.1-0.7-3.6-2.3-4.9-3.1l0.6-0.6c0.5,0.3,2.5,1.4,3.5,1.7c0.5-0.5,4.5-6.2,6.8-9.6L374.8,77.9z"/>
	<path d="M417.9,107.6c0.5-0.5,1.6-1.9,2-2.4c0.6-1.7,0-6-3.5-9.3c-4.9-4.7-11.4-4.1-15.4,0.1c-5,5.2-4.9,13.8,0.7,19.2
		c2,2,4.8,3.9,7.8,4.6l-1.5,0.8c-1.1-0.1-4.9-1.6-9.1-5.6c-1-1-3.8-3.9-5-7c-1.8-5.1-1-10.1,2.3-13.5c3.5-3.7,8-4.6,11.9-4
		c4.6,0.8,7.4,2.8,10.1,5.4c2.4,2.3,4.4,5.1,4.9,6.1c0.5-0.2,2.5-1.6,2.9-1.9l0.7,0.5c-3.2,2.6-6.1,5.2-8.5,7.7L417.9,107.6z"/>
	<path d="M421.9,116.7c2.5-2.2,6.9-6.1,7.7-7c-0.4-0.6-1.6-2.5-2.1-3.3l0.5-0.6c0.6,0.7,1.3,1.6,2.1,2.6c0.8,0.9,1.6,1.9,2.1,2.5
		c0.8,0.9,6.5,7.5,7.4,8.1c0.4-0.2,1-0.5,1.5-0.9l0.7,0.5c-0.7,0.4-5.4,3.8-6.3,4.5l-0.3-0.8c0.2-0.2,1.5-1.2,2-1.8
		c0.4-1.2-3-5.8-4.3-7.3c-0.5,0.3-6,4.8-7.6,6.3l-0.6,0.5c2.1,2.4,4.6,5,5.5,5.4c0.5-0.2,1-0.5,1.5-0.8l0.6,0.5
		c-0.6,0.4-4.9,3.2-5.9,3.8l-0.2-0.7c0.6-0.5,1.4-1.1,1.9-1.6c-0.3-1.3-2-3.6-4.1-6l-0.6,0.5c-1.7,1.5-7.7,6.9-8.5,7.7
		c2.4,2.8,4.9,5.2,6.8,5.9c1.2-0.5,2.2-1.2,3-1.5l0.7,0.5c-1,0.5-5.8,3.6-7.3,4.7l-0.4-0.7c0.8-0.7,1.3-1.1,1.7-1.5
		c-0.6-0.9-5.9-7.3-7.4-9c-0.8-1-2.8-3.1-3.8-4.2l0.7-0.4c0.4,0.4,2,2,2.9,2.5c0.6-0.3,5.8-4.7,8.9-7.4L421.9,116.7z"/>
	<path d="M438,133.9c1.1-0.7,7-4.7,7.5-5.3c-0.2-0.6-1.5-2.8-1.8-3.5l0.6-0.5l4.5,6.6c2,2.9,4.4,6.6,5,9.2c0.5,2.1,0,3.9-1.7,5
		c-1.9,1.3-5.8,1.1-8.7-0.4c-0.5,0.9-5.2,11.2-6.4,16.7l-1.1-1.2c-0.5-2.8,3.4-17.3,3.7-18.2c-0.9-1.1-1.8-2.3-2.2-2.8l-0.8,0.5
		c-2,1.3-6.7,4.6-8,5.6c0.2,0.6,1.4,2.8,1.7,3.5l-0.6,0.6c-0.5-0.8-2.5-3.9-3.4-5.4c-0.8-1.3-3.1-4.4-3.6-5.1l0.7-0.3
		c0.3,0.4,1.8,2.2,2.6,3c1-0.5,7-4.5,10.2-6.7L438,133.9z M438.2,138.8c0.7,1.1,1.7,2.4,3.1,3.3c1.4,1,4.3,2.2,7.3,0.2
		c2-1.3,3.1-4.7-0.4-10c-1.3,0.8-6.8,4.4-9,5.9L438.2,138.8z"/>
	<path d="M455.5,161.5c2.5-1.3,7.3-4,8-4.5c-2.8-5.3-4.9-7.2-6-7.8c-0.9,0.1-2.3,0.6-3.5,1l-0.6-0.7c1.7-0.7,6-2.5,8.6-4l0.3,0.8
		c-0.4,0.3-1.4,0.9-2,1.4c0.2,0.6,3,6.4,5.4,10.9c2.6,4.8,5.9,10.4,6.3,10.9c0.5-0.1,1.6-0.4,2.3-0.6l0.6,0.8
		c-0.9,0.2-8.1,3.1-9.1,3.5l-0.2-0.9c1.4-0.6,2.7-1.3,3.4-1.8c0.2-1.2-1.5-6.2-3.2-9.4c-0.9,0.4-5.8,2.9-8.2,4.2l-1.5,0.8
		c-2.9,1.6-8.5,4.6-11.1,6.1c0.2,0.7,1.6,3.9,1.8,4.5l-0.6,0.5c-0.4-0.8-2.4-4.7-3.3-6.6c-0.8-1.5-3-5.4-3.6-6.4l0.8-0.2
		c0.5,0.7,2.2,3.3,2.7,4c2.6-1.3,8.4-4.3,11.3-5.8L455.5,161.5z"/>
	<path d="M464.5,185.5c-4.4,2-10.1,4.6-10.7,5c0.2,0.9,0.9,3.1,1.1,3.8l-0.6,0.5c-0.3-0.8-1.8-4.4-2.7-6.5c-0.5-1.2-2-4.3-2.5-5.3
		l0.8-0.2c0.3,0.6,1.6,2.7,2.1,3.4c1.5-0.5,7.8-3.3,11.2-4.8l2-0.9c1.1-0.5,7.5-3.4,8.6-4c-0.2-0.7-0.9-3.1-1.1-3.8l0.6-0.5
		c0.2,0.7,1.6,3.8,2.8,6.5c0.8,1.7,2.2,4.6,2.5,5.2l-0.8,0.2c-0.4-0.7-1.4-2.2-2.1-3.4c-0.7,0.2-4.7,1.9-8.9,3.8L464.5,185.5z"/>
	<path d="M469.9,195.4c3.2-1.1,8.9-3,9.9-3.5c0.1-0.5-0.5-2.8-0.8-3.9l0.7-0.4c0.3,1.3,1.5,4.9,1.9,6.3c0.5,1.5,3.5,10.5,4,11.2
		c0.5,0,1.9-0.2,2.7-0.4l0.4,0.8c-1.7,0.3-6.3,1.5-8.9,2.3v-0.9c0.6-0.2,2.1-0.8,2.8-1.1c0.8-1.7-0.6-7.5-1.2-9.3
		c-0.6,0-7,2-9.6,2.9l-0.8,0.3c0.6,1.7,2.3,6.3,3,7.3c0.6,0,1.5-0.1,2.3-0.2l0.4,0.7c-1.8,0.4-5.4,1.2-8.1,2.1v-0.8
		c0.7-0.2,1.9-0.7,3-1.2c0.4-1.1-0.8-5.5-1.5-7.5l-1.1,0.4c-3,1-9.2,3.2-10.1,3.7c0.2,1.4,0.6,3.2,0.8,4.1l-0.7,0.4
		c-0.3-1.3-1.2-4.2-2-6.6c-0.7-2-1.6-4.7-2.1-5.9l0.8-0.1c0.2,0.4,1.1,2.7,1.7,3.6c0.9-0.2,6.7-2,10.6-3.3L469.9,195.4z"/>
	<path d="M476.1,222.1c-4.7,1-10.8,2.3-11.5,2.7c0,1,0.2,3.2,0.3,3.9l-0.7,0.3c-0.1-0.8-0.8-4.6-1.3-6.9c-0.3-1.2-1.1-4.6-1.4-5.6
		h0.8c0.2,0.6,1,3,1.3,3.7c1.6-0.2,8.3-1.6,11.9-2.4l2.1-0.5c1.2-0.3,8-1.7,9.2-2.2c0-0.8-0.2-3.2-0.3-3.9l0.7-0.3
		c0.1,0.7,0.7,4.1,1.3,6.9c0.4,1.9,1.1,5,1.3,5.6H489c-0.2-0.7-0.9-2.4-1.3-3.7c-0.8,0-5,0.9-9.5,1.8L476.1,222.1z"/>
	<path d="M486.3,252.4c0.7-0.1,2.4-0.4,3-0.6c1.5-0.9,3.8-4.6,3.2-9.4c-0.8-6.7-6.2-10.4-11.9-9.7c-7.2,0.9-12.6,7.5-11.6,15.3
		c0.3,2.8,1.2,6.1,3,8.5l-1.6-0.3c-0.8-0.8-2.8-4.3-3.4-10.1c-0.2-1.4-0.5-5.4,0.6-8.6c1.8-5.1,5.7-8.4,10.4-9
		c5.1-0.6,9.2,1.5,11.7,4.5c3,3.5,3.9,6.9,4.4,10.6c0.4,3.2,0.1,6.8,0,7.8c0.5,0.2,2.9,0.3,3.4,0.4l0.3,0.8c-4.1-0.1-8,0.2-11.5,0.5
		V252.4z"/>
	<path d="M469.6,273.2c0.1,1.3,0.3,2.6,0.6,3.8c1.9-0.7,9.8-3.5,10.9-4.1c0-1.3-0.4-7.3-0.6-8.6c-0.5-0.2-7.6-2.1-10.5-2.4
		c-0.2,0.9-0.4,2.2-0.5,3.2l-0.8,0.2c0.1-1.2,0.1-4.6,0.1-5.7c0-1-0.1-3.5-0.2-4.3l0.8,0.1c0.1,1.1,0.3,2.2,0.6,3.2
		c2.4,1.3,22.7,8.4,24.1,8.9c0.2-0.8,0.3-2.1,0.4-3l0.8-0.1c-0.1,1.1-0.1,4.2-0.1,4.9c0,1.6,0.2,5.3,0.3,6.4l-0.8-0.1
		c-0.1-1-0.3-2-0.5-2.8c-1.6,0.5-7.5,2.6-11.4,4.1c-2.9,1.1-9.1,3.5-12.4,5.3c-0.2,1.1-0.3,2.2-0.5,3.3l-0.8,0.1
		c0.1-0.5,0.1-4.2,0-6.2c0-1.1-0.2-5.3-0.3-6.3L469.6,273.2z M493.4,268.5L493.4,268.5c-3.4-1.2-9.9-3.5-11.1-3.9v7.9
		C484.7,271.7,491.3,269.2,493.4,268.5z"/>
	<path d="M484.1,292.7c2.8,0,8.3-0.1,9.1-0.2c0-6-1-8.6-1.6-9.6c-0.8-0.3-2.3-0.5-3.5-0.7l-0.2-0.9c1.8,0.1,6.4,0.6,9.4,0.5
		l-0.1,0.9c-0.5,0-1.6,0.1-2.4,0.2c-0.1,0.6-0.3,7-0.3,12c0,5.4,0.3,11.9,0.4,12.4c0.4,0.1,1.6,0.4,2.3,0.5l0.2,0.9
		c-0.9-0.2-8.5-1-9.6-1.2l0.2-0.9c1.5,0.1,3,0.1,3.8,0.1c0.7-0.9,1.5-6.1,1.5-9.7c-1-0.1-6.4-0.2-9.1-0.2h-1.7
		c-3.3,0-9.6,0.1-12.6,0.2c-0.1,0.7-0.4,4.1-0.5,4.8l-0.8,0.2c0.1-0.9,0.1-5.3,0.1-7.3c0-1.7-0.1-6.1-0.2-7.2l0.8,0.2
		c0.1,0.9,0.4,3.9,0.5,4.8c2.9,0.1,9.3,0.2,12.6,0.1L484.1,292.7z"/>
	<path d="M481.4,317.7c-4.8,0-10.9,0-11.6,0.1c-0.2,0.9-0.5,3.1-0.5,3.8l-0.8,0.2c0.1-0.8,0.2-4.6,0.2-6.9c0-1.2-0.1-4.6-0.1-5.7
		l0.8,0.2c0,0.6,0.4,3.1,0.5,3.9c1.5,0.2,8.3,0.2,11.9,0.2h2.2c1.2,0,8.1,0,9.3-0.1c0.1-0.7,0.5-3.2,0.5-3.8l0.8-0.2
		c-0.1,0.7-0.2,4.1-0.2,7c0,1.9,0.1,5,0.1,5.6l-0.8-0.2c-0.1-0.7-0.4-2.5-0.5-3.9c-0.7-0.2-5-0.2-9.5-0.2H481.4z"/>
	<path d="M471.7,327.8c2.8-2.7,5.5-3.6,9-3.6c7.4,0,14.1,6,14.2,16.2c0,3.9-0.6,7.1-2.9,10.3c-2.1,3-5.7,4.5-9.2,4.6
		c-9.1,0.1-15-6.8-15.1-16C467.6,335.6,468.2,331.3,471.7,327.8z M480,350.8c7.9,0,13.5-5.6,13.5-11.7c0-5.1-3.5-10.7-11.2-10.6
		c-6.7,0-13.2,5.4-13.1,12.7C469.2,346.5,474,350.8,480,350.8z"/>
	<path d="M494,357.3c0,2.1,0,5.5,0.1,8.4c-1.3,0.8-10.7,8-11.4,8.7c-1,0.9-8.3,6.7-9.3,7.8c4.1,0.1,17,0.3,19-0.4
		c0.2-0.7,0.5-2.7,0.6-3.7l0.8-0.2c-0.1,0.7-0.2,4.7-0.2,5.5s0,3.9,0.1,4.7l-0.8-0.2c-0.1-0.5-0.3-1.8-0.5-2.8
		c-1.4-0.5-6.6-0.7-7.8-0.8c-1.7-0.1-17.2-0.7-18.7-0.9c1.1-1.1,13.1-11.1,14.1-11.9c0.6-0.5,9.2-7.4,10.7-8.6
		c-0.7-0.1-20.1,0-21.4,0.4c-0.2,0.6-0.5,3.3-0.6,4l-0.8,0.1c0.1-0.7,0.2-4.5,0.2-5.5c0-1.1,0-3.9-0.1-5l0.8,0.1
		c0.1,1,0.2,2.2,0.5,3.1c1.5,0.7,22.2,1.4,23.4,1.4c0.2-0.8,0.4-2.6,0.5-4L494,357.3z"/>
	<path d="M281.1,399.8v34.9h-2.7c-3.3-9.5-8.3-16.8-14.9-21.8s-13.9-7.5-21.7-7.5c-7.5,0-13.8,2.1-18.8,6.2c-5,4.2-8.5,10-10.6,17.4
		c-2.1,7.5-3.1,15.1-3.1,22.9c0,9.5,1.1,17.8,3.4,25c2.3,7.2,5.9,12.4,11,15.8s11.1,5,18.1,5c2.4,0,4.9-0.3,7.5-0.8
		c2.5-0.5,5.2-1.3,7.8-2.2v-20.6c0-3.9-0.3-6.4-0.8-7.6c-0.5-1.1-1.7-2.2-3.4-3.1s-3.8-1.4-6.2-1.4H244v-2.7h48.9v2.7
		c-3.7,0.2-6.3,0.7-7.7,1.5c-1.5,0.8-2.6,2-3.4,3.8c-0.4,0.9-0.7,3.2-0.7,6.8v20.6c-6.4,2.8-13.1,5-20.1,6.4
		c-6.9,1.4-14.1,2.2-21.6,2.2c-9.5,0-17.5-1.3-23.8-3.8c-6.3-2.6-11.9-5.9-16.7-10.1s-8.6-8.9-11.3-14.1c-3.5-6.7-5.2-14.2-5.2-22.6
		c0-14.9,5.3-27.5,15.9-37.8c10.6-10.3,24-15.4,40.1-15.4c5,0,9.5,0.4,13.5,1.2c2.2,0.4,5.7,1.5,10.6,3.3s7.7,2.7,8.6,2.7
		c1.4,0,2.7-0.5,3.9-1.5c1.2-1,2.3-2.9,3.3-5.7h2.8L281.1,399.8L281.1,399.8z"/>
	<path d="M389.2,399.6v34.2h-2.9c-2.2-8.9-6.2-15.7-12-20.5c-5.9-4.7-12.5-7.1-19.9-7.1c-6.2,0-11.9,1.8-17.1,5.3s-9,8.2-11.4,13.9
		c-3.1,7.3-4.6,15.5-4.6,24.4c0,8.8,1.1,16.9,3.4,24.1c2.2,7.2,5.8,12.7,10.6,16.4c4.8,3.7,11,5.6,18.6,5.6c6.3,0,12-1.4,17.2-4.1
		s10.7-7.4,16.5-14v8.5c-5.6,5.8-11.4,9.9-17.4,12.5s-13.1,3.9-21.2,3.9c-10.6,0-20-2.1-28.3-6.3c-8.2-4.2-14.6-10.3-19.1-18.2
		c-4.5-7.9-6.7-16.3-6.7-25.2c0-9.4,2.5-18.3,7.4-26.7c5-8.4,11.7-15,20.1-19.6c8.4-4.7,17.4-7,26.9-7c7,0,14.4,1.5,22.1,4.5
		c4.5,1.7,7.4,2.6,8.6,2.6c1.6,0,2.9-0.6,4.1-1.7c1.1-1.1,1.9-2.9,2.2-5.4L389.2,399.6L389.2,399.6z"/>
	<path d="M493.2,399.6v34.2h-2.9c-2.2-8.9-6.2-15.7-12-20.5c-5.9-4.7-12.5-7.1-19.9-7.1c-6.2,0-11.9,1.8-17.1,5.3s-9,8.2-11.4,13.9
		c-3.1,7.3-4.6,15.5-4.6,24.4c0,8.8,1.1,16.9,3.4,24.1c2.2,7.2,5.8,12.7,10.6,16.4c4.8,3.7,11,5.6,18.6,5.6c6.3,0,12-1.4,17.2-4.1
		s10.7-7.4,16.5-14v8.5c-5.6,5.8-11.4,9.9-17.4,12.5s-13.1,3.9-21.2,3.9c-10.6,0-20-2.1-28.3-6.3c-8.2-4.2-14.6-10.3-19.1-18.2
		c-4.5-7.9-6.7-16.3-6.7-25.2c0-9.4,2.5-18.3,7.4-26.7c5-8.4,11.7-15,20.1-19.6c8.4-4.7,17.4-7,26.9-7c7,0,14.4,1.5,22.1,4.5
		c4.5,1.7,7.4,2.6,8.6,2.6c1.6,0,2.9-0.6,4.1-1.7c1.1-1.1,1.9-2.9,2.2-5.4L493.2,399.6L493.2,399.6z"/>
	<path class="st0" d="M297.3,249.5C240,302.4,193.4,372.8,193.4,372.8s-3.5-25.8-26.6-51.9c-23-26.1-56.9,1.1-70.3,14.6
		c35.2,8,63.9,83.5,75.5,115.4c0.1,0.2,0.4,0.4,0.7,0.5c0.3-17.3,6.7-32.2,19.1-44.2c11.7-11.3,26.2-17.4,43.2-18.2
		c2.7-6.2,26.1-57.5,73.3-112.3c81.6-94.7,134.6-102.4,134.6-102.4C408.6,170.4,341.7,208.5,297.3,249.5z"/>
	<path d="M192.8,496.9c-5.8-5-10.4-10.8-13.7-17.1c-4.2-8.2-6.4-17.4-6.4-27.4c0-0.6,0-1.2,0-1.8c-0.5-0.2-0.7-0.2-0.7-0.2
		s-42.8-19.6-74-69.3c-38.7-60.7-30.4-118.8-27.1-134.5c0.6-2.7,1.1-6.6,1.1-6.6s-6.9,11.2-21,8.6c-10.8-1.9-16-11.9-16-11.9
		s-1.1,3.7-1.5,6c-2.8,16.1-11.2,85,31.8,157.7c50.3,84.8,132.5,101.1,132.5,101.1c0.1-0.2,0.2-0.3,0.4-0.5
		C196.2,499.8,194.5,498.4,192.8,496.9z"/>
</g>
</svg>
